<svg width="315" height="24" viewBox="0 0 315 24" fill="none" xmlns="http://www.w3.org/2000/svg">
<path fill-rule="evenodd" clip-rule="evenodd" d="M19.6366 18.0056C20.4665 18.6273 21.9267 19 23.5419 19C26.8939 19 29.1428 17.1069 29.1428 14.2905C29.1428 12.7509 28.2429 11.5286 26.3984 10.5602C25.3613 9.98207 24.7359 9.59189 24.7359 9.10128C24.7359 8.64239 25.2196 8.14716 26.3594 8.14716C27.4685 8.14716 28.3245 8.58094 28.4804 8.6675L28.8848 8.88984L30.0163 5.85832L29.7183 5.69511C28.8742 5.22928 27.822 5 26.508 5C23.2978 5 21.0562 6.87389 21.0562 9.55687C21.0562 11.5041 22.5875 12.5848 23.9305 13.3086C25.1968 13.9638 25.4439 14.3384 25.4439 14.7643C25.4439 15.579 24.5608 15.871 23.8062 15.871C22.8201 15.871 21.7939 15.5909 20.9898 15.1095L20.59 14.8693L19.3924 17.8206L19.6366 18.0056ZM4.0732 18.806L2.54092 7.82165L6.2593 10.1584L0 5.20541H6.01581L6.6237 11.6646C6.69936 12.433 6.76213 13.1863 6.81994 13.9607C7.13314 13.218 7.49722 12.4069 7.91944 11.5119L10.9001 5.20508H14.8573L7.84014 18.806H4.0732ZM20.1396 5.20508L17.5597 18.8057H14.0148L16.5983 5.20508H20.1396ZM34.0811 15.4824L32.5594 18.806H28.7637L35.3838 5.20508H39.4996L41.0947 18.806H37.4153L37.1493 15.4824H34.0811ZM36.6868 9.38631C36.5451 9.75039 36.3994 10.0956 36.2576 10.4019L35.2467 12.6002H36.967L36.7565 10.2744C36.7458 10.1253 36.7328 9.9637 36.719 9.79259C36.7085 9.66228 36.6975 9.52643 36.6868 9.38631Z" fill="white" fill-opacity="0.5"/>
<path d="M257.163 4.15409C256.908 3.64121 256.501 3.23091 255.992 2.87189C255.483 2.56417 254.871 2.30773 254.158 2.20515C253.445 2.05129 252.631 2 251.663 2H247.232C246.774 2 246.316 2.35901 246.214 2.8206L243.209 15.9503C243.107 16.4119 243.413 16.7709 243.871 16.7709H246.01C246.468 16.7709 246.927 16.4119 247.029 15.9503L247.742 12.7704C247.843 12.3089 248.302 11.9498 248.76 11.9498H249.371C251.969 11.9498 254.006 11.437 255.432 10.3599C256.908 9.28288 257.621 7.84682 257.621 6.10303C257.571 5.33371 257.469 4.66697 257.163 4.15409ZM252.58 8.41098C251.918 8.87257 251.052 9.12901 249.881 9.12901H249.371C248.913 9.12901 248.607 8.77 248.709 8.30841L249.371 5.53886C249.473 5.07727 249.931 4.71826 250.39 4.71826H251.103C251.918 4.71826 252.529 4.87212 252.936 5.12856C253.344 5.385 253.547 5.84659 253.547 6.41076C253.547 7.28265 253.242 7.94939 252.58 8.41098Z" fill="white" fill-opacity="0.5"/>
<path d="M267.451 6.00097C266.636 5.53938 265.363 5.33423 263.632 5.33423C262.766 5.33423 261.9 5.38552 261.085 5.53938C260.474 5.64195 260.372 5.64196 260.016 5.74453C259.201 5.89839 259.099 6.719 259.099 6.719L258.845 7.79605C258.692 8.46279 259.099 8.46279 259.252 8.4115C259.609 8.30893 259.812 8.20635 260.525 8.05249C261.238 7.89862 261.951 7.79605 262.511 7.79605C263.377 7.79605 263.988 7.89862 264.447 8.05249C264.854 8.25764 265.109 8.56537 265.109 9.02696L265.058 9.33468L264.752 9.53984C263.53 9.59112 262.664 9.74499 261.595 9.89885C260.576 10.0527 259.659 10.3092 258.896 10.6682C258.081 11.0272 257.47 11.4888 257.062 12.1042C256.655 12.7197 256.451 13.489 256.451 14.3609C256.451 15.1815 256.757 15.8482 257.317 16.4124C257.877 16.9253 258.641 17.1817 259.558 17.1817C260.118 17.1817 260.576 17.1304 260.882 17.0792L261.9 16.7201L262.766 16.2585L263.581 15.7457L263.479 16.1047C263.377 16.515 263.632 16.874 264.039 16.9253H264.09H265.72H266.025H266.076C266.484 16.874 266.891 16.515 266.993 16.1047L268.521 9.33468L268.623 8.77052L268.674 8.25764C268.674 7.18059 268.266 6.46256 267.451 6.00097ZM263.988 13.6429L263.632 14.1045L262.817 14.5148C262.46 14.6686 262.053 14.7199 261.747 14.7199C261.238 14.7199 260.831 14.6686 260.525 14.4635L260.118 13.6942C260.118 13.2839 260.22 12.9248 260.423 12.6684L261.34 12.0529C261.747 11.8991 262.206 11.7965 262.766 11.7452C263.275 11.6939 264.192 11.5914 264.345 11.5914L264.498 11.8478C264.396 11.9504 264.141 13.0787 263.988 13.6429Z" fill="white" fill-opacity="0.5"/>
<path d="M306.056 6.05346C305.241 5.59187 303.968 5.38672 302.236 5.38672C301.371 5.38672 300.505 5.43801 299.69 5.59187C299.028 5.69445 298.977 5.69445 298.621 5.79702C297.806 5.95089 297.704 6.77149 297.704 6.77149L297.449 7.84854C297.296 8.51528 297.704 8.51528 297.857 8.46399C298.213 8.36142 298.417 8.25884 299.13 8.10498C299.792 7.95111 300.556 7.84854 301.116 7.84854C301.982 7.84854 302.593 7.95111 303.051 8.10498C303.459 8.31013 303.713 8.61786 303.713 9.07945L303.662 9.38717L303.357 9.59233C302.135 9.64361 301.269 9.79748 300.199 9.95134C299.181 10.1052 298.264 10.3616 297.5 10.7207C296.685 11.0797 296.074 11.5413 295.667 12.1567C295.259 12.7722 295.056 13.5415 295.056 14.3621C295.056 15.1827 295.361 15.8494 295.921 16.4136C296.482 16.9265 297.246 17.1829 298.162 17.1829C298.722 17.1829 299.181 17.1316 299.486 17.0804L300.505 16.7213L301.371 16.2598L302.185 15.6956L302.135 16.0546C302.033 16.4649 302.287 16.8239 302.695 16.8752H302.746C303 16.8752 303.917 16.8752 304.375 16.8752H304.681H304.732C305.139 16.8239 305.547 16.4649 305.649 16.0546L307.227 9.2846L307.329 8.72043L307.38 8.20755C307.278 7.18179 306.871 6.46376 306.056 6.05346ZM302.644 13.6441L302.287 14.1057L301.472 14.516C301.065 14.6698 300.709 14.7724 300.352 14.7724C299.792 14.7724 299.435 14.6698 299.13 14.516L298.722 13.6954C298.722 13.2338 298.824 12.926 299.028 12.6696C299.232 12.4132 299.537 12.208 299.945 12.0541C300.301 11.9003 300.81 11.7977 301.32 11.7464C301.778 11.6951 302.746 11.5926 302.898 11.5926L303.051 11.849C303.051 11.9516 302.746 13.1312 302.644 13.6441Z" fill="white" fill-opacity="0.5"/>
<path d="M295.768 4.20487C295.513 3.69199 295.106 3.28169 294.596 2.92268C294.087 2.61495 293.476 2.35851 292.763 2.25593C292.05 2.15336 291.235 2.05078 290.267 2.05078H285.837C285.378 2.05078 284.92 2.4098 284.818 2.87139L281.814 16.0011C281.712 16.4627 282.017 16.8217 282.476 16.8217H284.615C285.073 16.8217 285.531 16.4627 285.633 16.0011L286.346 12.8212C286.448 12.3597 286.906 12.0006 287.365 12.0006H287.976C290.573 12.0006 292.61 11.4365 294.036 10.4107C295.462 9.33366 296.175 7.8976 296.175 6.15381C296.175 5.33321 296.073 4.71775 295.768 4.20487ZM291.184 8.46177C290.522 8.92336 289.656 9.1798 288.485 9.1798H287.976C287.517 9.1798 287.212 8.82078 287.314 8.35919L287.976 5.58965C288.078 5.12806 288.536 4.76904 288.994 4.76904H289.707C290.522 4.76904 291.133 4.9229 291.541 5.17934C291.948 5.43578 292.152 5.89737 292.152 6.46154C292.152 7.33344 291.846 8.00018 291.184 8.46177Z" fill="white" fill-opacity="0.5"/>
<path d="M314.001 2.97295C314.103 2.51136 313.797 2.15234 313.339 2.15234H311.455C311.047 2.15234 310.691 2.46007 310.538 2.81909L310.436 2.97295L310.334 3.38325L307.686 15.5898L307.584 15.9488C307.482 16.3591 307.737 16.6668 308.093 16.7181L308.144 16.7694H310.131C310.538 16.7694 310.894 16.4617 311.047 16.1026L311.149 15.9488L314.001 2.97295Z" fill="white" fill-opacity="0.5"/>
<path d="M281.864 5.48438C281.355 5.48438 279.318 5.48438 279.318 5.48438C278.86 5.48438 278.248 5.84339 277.994 6.30498C277.994 6.30498 274.938 11.5876 274.633 12.1005H274.276L273.308 6.35627C273.207 5.89468 272.748 5.53566 272.137 5.53566H270.253C269.795 5.53566 269.489 5.89468 269.642 6.35627C269.642 6.35627 271.068 14.6649 271.373 16.6138C271.526 17.6909 271.373 17.896 271.373 17.896L269.489 21.1785C269.234 21.6401 269.336 21.9991 269.795 21.9991H271.984C272.443 21.9991 273.054 21.6401 273.308 21.1785L281.762 6.76657C281.813 6.71528 282.628 5.48438 281.864 5.48438Z" fill="white" fill-opacity="0.5"/>
<path fill-rule="evenodd" clip-rule="evenodd" d="M114.765 2C114.875 2.95408 114.509 3.87146 113.96 4.56866C113.375 5.26587 112.46 5.77961 111.545 5.66952C111.436 4.75214 111.875 3.79807 112.387 3.21094C112.972 2.55043 113.96 2.0367 114.765 2ZM112.637 6.35419C113.229 6.12689 113.963 5.845 114.765 5.88969C115.277 5.92639 116.741 6.07317 117.692 7.46759C117.582 7.50428 115.936 8.49505 115.973 10.5133C115.973 12.7363 117.73 13.5681 118.047 13.7181C118.075 13.7315 118.092 13.7395 118.095 13.7425C118.095 13.7792 117.765 14.8433 116.997 15.9809C116.338 17.0083 115.643 17.9257 114.546 17.9624C114 17.9807 113.644 17.8264 113.275 17.6668C112.903 17.5055 112.518 17.3386 111.911 17.3386C111.27 17.3386 110.866 17.5146 110.475 17.6852C110.129 17.8357 109.794 17.9819 109.313 17.9991C108.252 18.0358 107.447 16.9349 106.789 15.9809C105.362 13.9993 104.374 10.4032 105.764 7.94462C106.46 6.69699 107.704 5.96308 109.057 5.92639C109.658 5.92639 110.224 6.15003 110.715 6.34399C111.09 6.49249 111.422 6.6236 111.692 6.6236C111.935 6.6236 112.257 6.50015 112.637 6.35419ZM131.416 7.87084C131.416 5.00783 129.446 3 126.602 3H121.095V17.8728H123.356V12.7789H126.492C129.41 12.7789 131.416 10.771 131.416 7.87084ZM125.982 10.8826H123.392V10.9198H123.356V5.00783H125.982C127.951 5.00783 129.082 6.04892 129.082 7.9452C129.082 9.76712 127.951 10.8826 125.982 10.8826ZM136.011 11.6262C133.458 11.775 132.036 12.9648 132.036 14.8611C132.036 16.7573 133.495 18.0959 135.719 18.0959C137.105 18.0959 138.455 17.3522 139.075 16.1252H139.111V17.91H141.19V10.4364C141.19 8.24266 139.512 6.86693 136.923 6.86693C134.297 6.86693 132.619 8.31702 132.51 10.2877H134.589C134.771 9.35812 135.537 8.72603 136.814 8.72603C138.126 8.72603 138.929 9.43248 138.929 10.6595V11.4775L136.011 11.6262ZM138.929 13.002V13.8571C138.929 15.2701 137.725 16.3483 136.194 16.3112C135.026 16.3112 134.261 15.6791 134.261 14.7495C134.261 13.82 134.99 13.225 136.303 13.1507L138.929 13.002ZM143.05 20.1037V21.9256C143.156 21.9436 143.338 21.9529 143.515 21.9619C143.704 21.9715 143.886 21.9808 143.962 22C146.15 22 147.208 21.182 148.119 18.5421L152.095 7.09002H149.761L147.062 15.9393H147.025L144.326 7.09002H141.956L145.822 17.9472C145.822 17.9472 145.639 18.5793 145.639 18.6164C145.275 19.6947 144.764 20.1409 143.743 20.1409C143.597 20.1409 143.196 20.1409 143.05 20.1037Z" fill="white" fill-opacity="0.5"/>
<path d="M194.801 4.39044V3H189.625V9.56597H194.801V8.17553H191.209V6.86234H194.724V5.58777H191.209V4.39044H194.801Z" fill="white" fill-opacity="0.5"/>
<path d="M204.487 3H202.903V9.48872H204.487V3Z" fill="white" fill-opacity="0.5"/>
<path d="M216.623 14.664C216.236 14.2778 215.696 14.1233 214.846 14.1233H213.996C213.803 14.1233 213.61 14.1233 213.456 14.0461C213.262 13.9688 213.069 13.8529 213.069 13.5826C213.069 13.3895 213.069 13.1964 213.262 13.1191C213.456 13.0419 213.649 13.0419 213.919 13.0419H216.777V11.4197H213.726C212.065 11.4197 211.486 12.4239 211.486 13.3508C211.486 15.3979 213.262 15.282 214.73 15.3979C215 15.3979 215.194 15.4751 215.271 15.591C215.348 15.6682 215.464 15.8614 215.464 16.0545C215.464 16.2476 215.387 16.4407 215.271 16.518C215.078 16.7111 214.885 16.7111 214.614 16.7111H211.64V18.1015H214.614C216.198 18.1015 217.009 17.4449 217.009 16.0545C217.086 15.3979 216.893 14.9344 216.623 14.664Z" fill="white" fill-opacity="0.5"/>
<path d="M223.189 15.7069C222.996 14.7027 222.147 14.3551 221.876 14.2392C221.606 14.1233 221.297 14.0847 220.872 14.0847H220.138H220.061C219.868 14.0847 219.675 14.0847 219.52 14.0074C219.25 13.9302 219.134 13.8143 219.134 13.544C219.134 13.3508 219.211 13.1577 219.327 13.0805C219.52 13.0032 219.713 13.0032 219.984 13.0032H220.061H220.795H222.842V11.4197H219.79C219.636 11.4197 219.443 11.4197 219.327 11.4583C218.091 11.69 217.589 12.5011 217.589 13.3508C217.589 15.3979 219.366 15.282 220.833 15.3979C221.104 15.3979 221.297 15.4751 221.374 15.591C221.451 15.6682 221.567 15.8614 221.567 16.0545C221.567 16.2476 221.49 16.4407 221.374 16.518C221.181 16.7111 220.988 16.7111 220.717 16.7111H217.743V18.1015H220.717C221.644 18.1015 222.301 17.8312 222.649 17.4449C223.035 17.0587 223.189 16.5952 223.189 16.0545C223.189 15.9386 223.189 15.8227 223.189 15.7069Z" fill="white" fill-opacity="0.5"/>
<path d="M210.791 12.8885V11.498H205.615V18.064H210.791V16.6736H207.199V15.399H210.714V14.0858H207.199V12.8885H210.791Z" fill="white" fill-opacity="0.5"/>
<path d="M186.115 3L184.261 7.44169L184.222 7.51893L183.411 5.62639L182.253 3.07725L182.214 3H180.322H179.781V9.21836L177.193 3H174.876L172.095 9.48872H173.717L174.065 8.75488L174.374 8.09828H177.502L178.159 9.48872H181.287V4.39044L183.527 9.48872H184.338H184.84H184.918L187.081 4.62218L187.158 4.42906V8.948V9.48872H187.699H188.626V3H186.115ZM174.914 6.70784L175.918 4.12008L176.923 6.70784H174.914Z" fill="white" fill-opacity="0.5"/>
<path d="M221.246 3.07725V7.59618L218.581 3.07725H216.263V6.66922V6.86234V8.948V9.25698L215.568 7.6348L213.675 3.07725H212.285H211.358L209.466 7.6348L209.234 8.13691H208.577C208.114 8.13691 207.727 8.05966 207.457 7.75067C207.071 7.36444 206.994 6.90096 206.994 6.16712C206.994 5.51052 207.187 4.96979 207.457 4.69943C207.843 4.42906 208.114 4.31319 208.654 4.31319H210.006H210.122V4.08145V3H208.654C207.65 3 206.8 3.19312 206.337 3.73384C205.68 4.46769 205.487 5.39465 205.487 6.32161C205.487 7.51893 205.758 8.25278 206.337 8.83213C206.878 9.37285 207.805 9.56597 208.539 9.56597H210.315L210.856 8.09828H214.1L214.371 8.75488L214.641 9.4501H216.225H217.77V8.60039V4.58356L220.744 9.48872H222.791V3.07725H221.246ZM211.435 6.70784L212.555 4.12008L213.56 6.70784H211.435Z" fill="white" fill-opacity="0.5"/>
<path d="M201.749 8.02343C201.749 8.02343 201.749 7.98481 201.749 8.02343C201.749 7.98481 201.749 7.9848 201.749 7.9848C201.749 7.90756 201.749 7.83031 201.749 7.79169V7.75307C201.749 7.71444 201.749 7.67582 201.711 7.59857V7.55995C201.711 7.52133 201.672 7.4827 201.672 7.44408C201.672 7.44408 201.672 7.44408 201.672 7.40545C201.672 7.36683 201.633 7.28959 201.633 7.25096C201.595 7.13509 201.518 7.01922 201.44 6.90335C201.402 6.86473 201.402 6.8261 201.363 6.78748C201.093 6.51712 200.784 6.43987 200.784 6.43987C201.247 6.24675 201.865 5.70603 201.904 4.74044C201.904 4.0066 201.633 3.58174 201.17 3.31138C200.706 3.04102 200.166 3.04102 199.316 3.04102H195.801V7.4827V9.49112H197.385V8.10068V7.17371H199.046C199.47 7.17371 199.741 7.17372 199.895 7.25096C199.973 7.28959 200.088 7.36683 200.166 7.44408C200.282 7.59857 200.359 7.79169 200.397 7.9848C200.436 8.17792 200.436 8.37104 200.436 8.56416C200.436 8.6414 200.436 8.68003 200.436 8.71865V9.49112H201.827V8.17792C201.749 8.1393 201.749 8.06205 201.749 8.02343ZM200.088 5.59016C200.05 5.62878 200.05 5.6674 200.011 5.70603L199.973 5.74465C199.934 5.78327 199.934 5.78327 199.895 5.78327C199.702 5.86052 199.432 5.86052 199.162 5.86052H197.308V4.39283H199.162C199.432 4.39283 199.702 4.39283 199.895 4.47008C200.011 4.54733 200.127 4.62457 200.166 4.77907C200.166 4.77907 200.166 4.77907 200.166 4.81769C200.166 4.85631 200.166 4.85631 200.166 4.89494C200.243 5.24255 200.166 5.47429 200.088 5.59016Z" fill="white" fill-opacity="0.5"/>
<path d="M197.775 12.8121C197.388 11.8465 196.307 11.6148 195.341 11.6148H190.436L188.505 13.7391L188.466 13.7777L188.119 13.3915L186.458 11.5762H180.433V18.0649H186.342L188.389 15.9406L188.466 16.0565L190.243 18.1035H193.294V17.0993V16.5586V16.0179V15.6702H195.148C196.539 15.6702 197.813 15.284 197.813 13.4301C197.852 13.1984 197.813 13.0052 197.775 12.8121ZM185.647 16.7903H181.862V15.3999H182.711H185.299V14.0867H182.711H181.862V12.8894H185.724L187.385 14.8205L185.647 16.7903ZM191.749 17.5242L189.355 14.8592L191.749 12.2714V17.5242ZM195.341 14.5502H193.294V12.8894H195.225C195.766 12.8894 196.152 13.1597 196.23 13.7391C196.268 14.2798 195.921 14.5502 195.341 14.5502Z" fill="white" fill-opacity="0.5"/>
<path d="M204.69 16.5562C204.69 16.5176 204.69 16.4789 204.69 16.4403C204.69 16.4017 204.69 16.4017 204.69 16.3631C204.69 16.3245 204.69 16.3245 204.69 16.2858C204.69 16.2472 204.69 16.2472 204.69 16.2086V16.17C204.651 16.0541 204.651 15.9768 204.612 15.861C204.612 15.8223 204.574 15.7837 204.574 15.7837C204.535 15.7065 204.496 15.6679 204.458 15.5906C204.381 15.3975 204.072 15.2044 203.608 15.0499C204.072 14.8568 204.728 14.316 204.728 13.2732C204.728 12.5394 204.342 12.0759 203.878 11.8055C203.415 11.5352 202.758 11.5352 202.024 11.5352H198.51V15.9382V18.0625H200.093V16.6721V15.6679H201.754C202.295 15.6679 202.681 15.6679 202.874 15.9382C203.145 16.2086 203.145 16.8652 203.145 17.2514V18.1011H204.728V16.7879C204.728 16.7107 204.728 16.6721 204.728 16.5948C204.69 16.5948 204.69 16.5562 204.69 16.5562ZM203.029 13.7367C203.029 14.007 202.951 14.2774 202.758 14.3933C202.565 14.4705 202.295 14.4705 202.024 14.4705H200.171V13.0028H202.024C202.295 13.0028 202.565 13.0028 202.758 13.0801C202.951 13.1573 203.106 13.3505 203.029 13.7367Z" fill="white" fill-opacity="0.5"/>
<path d="M73.0947 18.2932C71.9858 18.9448 70.7245 19.2918 69.4384 19.2991C68.1523 19.3064 66.887 18.9739 65.7708 18.3351C64.6545 17.6962 63.7268 16.7738 63.0817 15.6613C62.4365 14.5487 62.0967 13.2854 62.0967 11.9992C62.0967 10.7131 62.4365 9.44978 63.0817 8.33719C63.7268 7.22459 64.6545 6.3022 65.7708 5.66338C66.887 5.02456 68.1523 4.69199 69.4384 4.69934C70.7245 4.70669 71.9858 5.05369 73.0947 5.70522C74.2036 5.05369 75.465 4.70669 76.7511 4.69934C78.0372 4.69199 79.3024 5.02456 80.4187 5.66338C81.5349 6.3022 82.4626 7.22459 83.1078 8.33719C83.753 9.44978 84.0928 10.7131 84.0928 11.9992C84.0928 13.2854 83.753 14.5487 83.1078 15.6613C82.4626 16.7738 81.5349 17.6962 80.4187 18.3351C79.3024 18.9739 78.0372 19.3064 76.7511 19.2991C75.465 19.2918 74.2036 18.9448 73.0947 18.2932V18.2932ZM74.7967 16.9092C75.6014 17.2362 76.4741 17.3605 77.3381 17.271C78.2021 17.1816 79.0308 16.8811 79.7514 16.3961C80.472 15.9112 81.0624 15.2565 81.4705 14.4898C81.8787 13.7231 82.0922 12.8678 82.0922 11.9992C82.0922 11.1306 81.8787 10.2753 81.4705 9.50863C81.0624 8.74191 80.472 8.08726 79.7514 7.60229C79.0308 7.11731 78.2021 6.81688 77.3381 6.72741C76.4741 6.63794 75.6014 6.76219 74.7967 7.08922C76.0203 8.43149 76.6973 10.183 76.6947 11.9992C76.6947 13.8892 75.9757 15.6132 74.7967 16.9092ZM71.3927 7.08922C70.588 6.76219 69.7153 6.63794 68.8514 6.72741C67.9874 6.81688 67.1586 7.11731 66.438 7.60229C65.7174 8.08726 65.1271 8.74191 64.7189 9.50863C64.3107 10.2753 64.0973 11.1306 64.0973 11.9992C64.0973 12.8678 64.3107 13.7231 64.7189 14.4898C65.1271 15.2565 65.7174 15.9112 66.438 16.3961C67.1586 16.8811 67.9874 17.1816 68.8514 17.271C69.7153 17.3605 70.588 17.2362 71.3927 16.9092C70.1692 15.567 69.4921 13.8155 69.4947 11.9992C69.4947 10.1092 70.2137 8.38522 71.3927 7.08922ZM73.0947 8.20422C72.5876 8.69746 72.1846 9.28752 71.9098 9.93942C71.6349 10.5913 71.4938 11.2918 71.4947 11.9992C71.4947 13.4872 72.1077 14.8312 73.0947 15.7942C73.6019 15.301 74.0048 14.7109 74.2797 14.059C74.5545 13.4071 74.6957 12.7067 74.6947 11.9992C74.6957 11.2918 74.5545 10.5913 74.2797 9.93942C74.0048 9.28752 73.6019 8.69746 73.0947 8.20422V8.20422Z" fill="white" fill-opacity="0.5"/>
</svg>
