<svg width="272" height="25" viewBox="0 0 272 25" fill="none" xmlns="http://www.w3.org/2000/svg">
<path d="M14 14.207H16.5L17.5 10.207H14V8.20703C14 7.17703 14 6.20703 16 6.20703H17.5V2.84703C17.174 2.80403 15.943 2.70703 14.643 2.70703C11.928 2.70703 10 4.36403 10 7.40703V10.207H7V14.207H10V22.707H14V14.207Z" fill="#F7F5F9"/>
<path d="M74 2.70703C76.717 2.70703 77.056 2.71703 78.122 2.76703C79.187 2.81703 79.912 2.98403 80.55 3.23203C81.21 3.48603 81.766 3.83003 82.322 4.38503C82.8305 4.88493 83.224 5.48962 83.475 6.15703C83.722 6.79403 83.89 7.52003 83.94 8.58503C83.987 9.65103 84 9.99003 84 12.707C84 15.424 83.99 15.763 83.94 16.829C83.89 17.894 83.722 18.619 83.475 19.257C83.2247 19.9248 82.8311 20.5296 82.322 21.029C81.822 21.5374 81.2173 21.9308 80.55 22.182C79.913 22.429 79.187 22.597 78.122 22.647C77.056 22.694 76.717 22.707 74 22.707C71.283 22.707 70.944 22.697 69.878 22.647C68.813 22.597 68.088 22.429 67.45 22.182C66.7823 21.9315 66.1775 21.538 65.678 21.029C65.1694 20.5292 64.7759 19.9245 64.525 19.257C64.277 18.62 64.11 17.894 64.06 16.829C64.013 15.763 64 15.424 64 12.707C64 9.99003 64.01 9.65103 64.06 8.58503C64.11 7.51903 64.277 6.79503 64.525 6.15703C64.7752 5.48921 65.1688 4.88435 65.678 4.38503C66.1777 3.87626 66.7824 3.48276 67.45 3.23203C68.088 2.98403 68.812 2.81703 69.878 2.76703C70.944 2.72003 71.283 2.70703 74 2.70703ZM74 7.70703C72.6739 7.70703 71.4021 8.23382 70.4645 9.1715C69.5268 10.1092 69 11.3809 69 12.707C69 14.0331 69.5268 15.3049 70.4645 16.2426C71.4021 17.1802 72.6739 17.707 74 17.707C75.3261 17.707 76.5979 17.1802 77.5355 16.2426C78.4732 15.3049 79 14.0331 79 12.707C79 11.3809 78.4732 10.1092 77.5355 9.1715C76.5979 8.23382 75.3261 7.70703 74 7.70703ZM80.5 7.45703C80.5 7.12551 80.3683 6.80757 80.1339 6.57315C79.8995 6.33873 79.5815 6.20703 79.25 6.20703C78.9185 6.20703 78.6005 6.33873 78.3661 6.57315C78.1317 6.80757 78 7.12551 78 7.45703C78 7.78855 78.1317 8.10649 78.3661 8.34091C78.6005 8.57534 78.9185 8.70703 79.25 8.70703C79.5815 8.70703 79.8995 8.57534 80.1339 8.34091C80.3683 8.10649 80.5 7.78855 80.5 7.45703ZM74 9.70703C74.7956 9.70703 75.5587 10.0231 76.1213 10.5857C76.6839 11.1483 77 11.9114 77 12.707C77 13.5027 76.6839 14.2657 76.1213 14.8284C75.5587 15.391 74.7956 15.707 74 15.707C73.2044 15.707 72.4413 15.391 71.8787 14.8284C71.3161 14.2657 71 13.5027 71 12.707C71 11.9114 71.3161 11.1483 71.8787 10.5857C72.4413 10.0231 73.2044 9.70703 74 9.70703Z" fill="#F7F5F9"/>
<path d="M137.37 2.80111C134.977 2.47196 132.546 3.01966 130.526 4.34307C128.505 5.66647 127.032 7.67621 126.378 10.0012C125.724 12.3261 125.933 14.8093 126.966 16.9922C128 19.175 129.789 20.9101 132.002 21.8771C131.942 21.1089 131.997 20.3361 132.165 19.5841C132.35 18.7451 133.461 14.1211 133.461 14.1211C133.24 13.6252 133.129 13.0871 133.137 12.5441C133.137 11.0591 133.994 9.95111 135.06 9.95111C135.251 9.94832 135.441 9.9868 135.617 10.0639C135.792 10.1411 135.949 10.2551 136.076 10.3981C136.203 10.5412 136.298 10.71 136.355 10.8931C136.411 11.0762 136.427 11.2692 136.402 11.4591C136.402 12.3591 135.824 13.7211 135.522 14.9991C135.462 15.2335 135.459 15.4786 135.511 15.7147C135.563 15.9508 135.67 16.1713 135.824 16.3584C135.977 16.5456 136.172 16.6941 136.393 16.792C136.614 16.8899 136.855 16.9344 137.097 16.9221C138.995 16.9221 140.267 14.4911 140.267 11.6211C140.267 9.42111 138.81 7.77311 136.124 7.77311C135.481 7.74814 134.84 7.85403 134.24 8.08436C133.639 8.31469 133.092 8.66465 132.631 9.113C132.17 9.56134 131.805 10.0987 131.558 10.6925C131.311 11.2863 131.187 11.924 131.194 12.5671C131.165 13.2804 131.395 13.9801 131.842 14.5371C131.925 14.5994 131.986 14.6871 132.016 14.787C132.045 14.887 132.041 14.9937 132.004 15.0911C131.958 15.2751 131.842 15.7141 131.796 15.8751C131.786 15.9297 131.764 15.9813 131.731 16.0257C131.698 16.0701 131.655 16.1062 131.605 16.1309C131.555 16.1556 131.501 16.1683 131.445 16.168C131.39 16.1677 131.335 16.1544 131.286 16.1291C129.902 15.5751 129.25 14.0521 129.25 12.3131C129.25 9.46611 131.634 6.05811 136.404 6.05811C140.2 6.05811 142.724 8.83511 142.724 11.8051C142.724 15.7141 140.547 18.6531 137.33 18.6531C136.849 18.6685 136.372 18.5624 135.943 18.3446C135.514 18.1268 135.147 17.8044 134.876 17.4071C134.876 17.4071 134.298 19.7231 134.184 20.1611C133.951 20.9178 133.608 21.6359 133.165 22.2921C134.088 22.5721 135.047 22.7121 136.011 22.7081C137.325 22.7092 138.625 22.4511 139.839 21.9487C141.053 21.4463 142.156 20.7094 143.084 19.7802C144.013 18.8511 144.749 17.7479 145.25 16.5338C145.752 15.3198 146.009 14.0187 146.007 12.7051C146.006 10.2901 145.131 7.9571 143.544 6.13689C141.956 4.31667 139.764 3.13217 137.372 2.80211L137.37 2.80111Z" fill="#F7F5F9"/>
<path d="M207.588 7.8982C207.357 7.04138 206.682 6.36597 205.825 6.13525C204.26 5.70703 198 5.70703 198 5.70703C198 5.70703 191.74 5.70703 190.175 6.11902C189.334 6.34949 188.642 7.04151 188.412 7.8982C188 9.46314 188 12.7086 188 12.7086C188 12.7086 188 15.9705 188.412 17.5191C188.643 18.3758 189.318 19.0512 190.175 19.2819C191.756 19.7102 198 19.7102 198 19.7102C198 19.7102 204.26 19.7102 205.825 19.2982C206.682 19.0677 207.357 18.3922 207.588 17.5355C208 15.9705 208 12.7251 208 12.7251C208 12.7251 208.016 9.46314 207.588 7.8982ZM196.007 15.7069V9.71034L201.212 12.7086L196.007 15.7069Z" fill="#F7F5F9"/>
<path d="M254.94 5.70705C254.94 6.23749 254.729 6.74609 254.354 7.12098C253.978 7.49586 253.469 7.70632 252.939 7.70606C252.409 7.70579 251.9 7.49482 251.525 7.11956C251.15 6.7443 250.94 6.23549 250.94 5.70505C250.94 5.17462 251.151 4.66602 251.526 4.29113C251.902 3.91625 252.411 3.70579 252.941 3.70605C253.471 3.70632 253.98 3.91729 254.355 4.29255C254.73 4.66781 254.94 5.17662 254.94 5.70705ZM255 9.18705H251V21.7071H255V9.18705ZM261.32 9.18705H257.34V21.7071H261.28V15.1371C261.28 11.4771 266.05 11.1371 266.05 15.1371V21.7071H270V13.7771C270 7.60705 262.94 7.83706 261.28 10.8671L261.32 9.18705Z" fill="#F7F5F9"/>
</svg>
