<svg width="168" height="50" viewBox="0 0 168 50" fill="none" xmlns="http://www.w3.org/2000/svg">
<path fill-rule="evenodd" clip-rule="evenodd" d="M85.6713 0H86.2509C86.4331 0.0944869 86.5958 0.254857 86.7289 0.386069C86.7428 0.399806 86.7564 0.413223 86.7697 0.426211C86.8199 0.423018 86.8475 0.405043 86.8799 0.383983C86.9258 0.3542 86.9811 0.318249 87.1229 0.309218C87.2101 0.420479 87.1971 0.465922 87.1792 0.528722C87.1682 0.567535 87.1552 0.612978 87.1628 0.684688C87.507 0.79178 87.7989 0.882628 88.0662 1H78.6666C78.6659 0.640819 79.2129 0.349624 79.4761 0.607125C79.7666 0.588624 80.0121 0.512515 80.2575 0.436407C80.6256 0.322243 80.9937 0.208079 81.5142 0.288344C81.5477 0.182018 81.5988 0.0873286 81.6612 0H84.0824C84.0744 0.0418605 84.0654 0.084162 84.0565 0.126464C84.1837 0.118364 84.2051 0.0648356 84.2305 0H84.5305C84.5306 0.000587242 84.5307 0.00117451 84.5307 0.00176178C84.5412 0.00109255 84.5516 0.000508385 84.562 0H85.497C85.5234 0.0188907 85.564 0.0304728 85.6302 0.0262522C85.644 0.0168184 85.6576 0.00807631 85.6713 0ZM75.2046 0H75.3035C75.4556 0.216387 75.6724 0.265212 75.7644 0.0874443C76.0664 0.635231 76.8028 0.682846 77.4081 0.644304C77.4686 0.640449 77.4736 0.687383 77.4786 0.734317C77.4836 0.78125 77.4886 0.828184 77.5491 0.82433C77.6602 0.722754 77.9123 0.801204 78.0533 0.98123C78.161 0.930539 78.2512 0.962289 78.3402 1H61.182C61.1693 0.680172 61.1573 0.337626 61.2057 0H65.0702C65.1514 0.083041 65.2351 0.149585 65.2687 0.137523C65.2507 0.251488 65.3694 0.383946 65.4973 0.52665C65.5819 0.621115 65.6706 0.72007 65.7263 0.821124C65.7868 0.81727 65.7818 0.770335 65.7768 0.723401C65.7719 0.676468 65.7669 0.629535 65.8274 0.625681L66.0695 0.610264C66.2269 0.811126 66.4786 0.829511 66.7597 0.850043C66.9825 0.866315 67.2238 0.883934 67.4511 0.994806C67.6728 0.921367 67.8429 0.813978 67.9962 0.717169C68.0871 0.659754 68.1722 0.606061 68.2586 0.565377C68.3191 0.561523 68.3216 0.584989 68.3254 0.62019C68.3291 0.65539 68.3341 0.702324 68.3996 0.745403C68.4552 0.694615 68.5435 0.665367 68.6318 0.636119C68.7201 0.606871 68.8084 0.577622 68.8639 0.526834C68.9949 0.612992 69.0555 0.609138 69.1009 0.606247C69.1463 0.603357 69.1765 0.60143 69.2471 0.691443C69.3278 0.686304 69.292 0.604581 69.2562 0.522858C69.2383 0.481994 69.2204 0.441131 69.2171 0.409841C69.3837 0.257477 69.5672 0.263514 69.7506 0.269551C69.8118 0.271564 69.873 0.273576 69.9335 0.269722C69.9419 0.349066 69.9252 0.396253 69.9129 0.430797C69.8962 0.477986 69.8878 0.501579 69.9634 0.551324C70.1131 0.541796 70.1664 0.502302 70.2401 0.447723C70.2857 0.413991 70.3391 0.374498 70.4277 0.332755C70.8208 0.591231 71.8193 0.811164 72.4046 0.584886C72.3996 0.537954 72.3669 0.516414 72.3341 0.494874C72.3014 0.473335 72.2686 0.451795 72.2636 0.404861C72.7179 0.0924243 73.3532 0.335483 73.6352 0.695535C73.721 0.642821 73.8062 0.584241 73.8914 0.525661C74.1469 0.349914 74.4025 0.174166 74.6749 0.156821C74.7792 0.150176 74.7862 0.0795045 74.7797 0H74.9398C74.9549 0.00811442 74.969 0.0166967 74.9825 0.0249179C75.0545 0.0687518 75.1097 0.102323 75.2046 0ZM65.2687 0.137523C65.2804 0.133301 65.286 0.119452 65.2833 0.0933122C65.2758 0.107713 65.271 0.122456 65.2687 0.137523ZM54.3833 0H54.7299C55.1775 0.0926137 55.2284 0.581322 55.0754 1H1V49H18.4988C18.5201 49.0035 18.5428 49.0054 18.5669 49.0054C18.4954 49.1163 18.5502 49.2925 18.6074 49.4763C18.6473 49.6047 18.6884 49.7369 18.6884 49.8531C18.7976 49.8531 18.8823 49.777 18.9755 49.6932C19.0896 49.5905 19.2166 49.4763 19.4172 49.4763C19.2958 49.4763 19.6602 49.6647 19.6602 49.6647C19.81 49.6647 19.9804 49.6329 20.146 49.6019L20.1461 49.6019C20.3832 49.5576 20.6104 49.5151 20.7534 49.5705C20.8344 49.6019 20.9019 49.6438 20.9693 49.6856C21.1043 49.7694 21.2393 49.8531 21.4822 49.8531C21.8466 49.6647 22.0896 49.5705 22.5755 49.6647C22.6565 49.4135 22.9534 49.4135 23.2503 49.4135C23.3988 49.4135 23.5472 49.4135 23.6687 49.3822C24.1308 49.4717 24.5929 49.7317 24.846 50H1H0V49V1V0H1H29.7376C29.8495 0.0696366 29.965 0.133735 30.0785 0.196715C30.2115 0.270517 30.3417 0.342782 30.4601 0.420623C30.3091 0.14673 30.9144 0.108187 31.0454 0.194346C31.1385 0.0641507 31.2643 0.0226533 31.3951 0H32.0232C32.106 0.0879584 32.191 0.196476 32.276 0.304994C32.9255 0.387828 33.3966 0.278016 33.7266 0H36.8904C36.9342 0.0233639 36.9737 0.0552177 37.0074 0.0982263C37.0771 0.0654146 37.1468 0.032603 37.2132 0H38.7716C38.9076 0.0337217 39.0631 0.0277539 39.2123 0H39.4695C39.6722 0.242978 39.981 0.151561 40.3021 0.0564933C40.3684 0.0368449 40.4353 0.0170405 40.5019 0H40.8206C40.9084 0.0620464 41.0505 0.0919525 41.2007 0.12356C41.363 0.157708 41.5347 0.193842 41.6576 0.274636C41.7672 0.174424 41.9041 0.0826956 42.0596 0H51.4139C51.413 0.0079027 51.412 0.0158847 51.4111 0.0239354C51.4035 0.0871746 51.3953 0.154647 51.4024 0.221153V0.221148C51.4745 0.155268 51.5465 0.0893876 51.5828 0H54.129C54.1459 0.0144609 54.1646 0.0292686 54.1868 0.0438554C54.2566 0.0242178 54.322 0.00974379 54.3833 0ZM104.879 1C104.906 0.867557 105.084 0.901197 105.221 0.927253C105.274 0.937201 105.32 0.946043 105.351 0.944116C105.573 0.740964 105.936 0.717839 106.299 0.694713C106.662 0.671587 107.026 0.648461 107.248 0.44531C107.179 0.508087 107.245 0.526177 107.337 0.551177C107.394 0.566628 107.46 0.584718 107.51 0.617628C107.568 0.590306 107.634 0.56837 107.7 0.546433C107.899 0.480625 108.098 0.414816 108.075 0.203615C108.196 0.195907 108.317 0.188198 108.337 0.375932C108.438 0.180489 109.024 -0.0457881 109.064 0.329681C109.313 0.233228 109.612 0.18514 109.908 0.137512C110.145 0.0994998 110.379 0.0617804 110.585 0H127.133C127.159 0.034806 127.182 0.0743023 127.202 0.119775C127.404 0.145583 127.576 0.0782679 127.752 0H167H168V1V49V50H167H146.766C147.02 49.9228 147.243 49.8177 147.367 49.625C147.428 49.6721 147.519 49.6721 147.595 49.6721C147.671 49.6721 147.732 49.6721 147.732 49.7192C147.854 49.3414 148.25 49.1294 148.738 49H167V1H104.879ZM32.9005 49.0054L32.8862 49H31.1378C31.1001 49.0513 31.0784 49.1141 31.0784 49.1938C30.8702 49.14 30.6619 49.2092 30.4537 49.2784L30.4537 49.2784C30.2975 49.3303 30.1413 49.3822 29.9852 49.3822C30.0763 49.2409 29.9624 49.2585 29.8485 49.2762C29.8106 49.2821 29.7726 49.288 29.7422 49.288C29.7422 49.288 29.8637 49.1938 29.7422 49.0996C29.6446 49.0744 29.5557 49.0559 29.4731 49.0387C29.4111 49.0258 29.3526 49.0137 29.2968 49H28.7155C28.649 49.1522 28.649 49.354 28.649 49.4763C28.5032 49.4763 28.3575 49.5781 28.2117 49.6798C28.1145 49.7476 28.0173 49.8154 27.9202 49.8531C27.8594 49.8531 27.7987 49.8295 27.738 49.806C27.6772 49.7824 27.6165 49.7589 27.5558 49.7589C27.5335 49.7935 27.5153 49.8249 27.4989 49.8531C27.4603 49.9198 27.4319 49.9687 27.384 50H42.703C42.6337 49.9364 42.5645 49.8596 42.4953 49.7523C42.3841 49.7523 42.292 49.7572 42.2132 49.7614C41.9475 49.7756 41.8323 49.7818 41.645 49.5639C41.1591 49.7523 40.9162 49.8464 40.1873 49.6581C40.1266 49.611 40.1266 49.5403 40.1266 49.4697C40.1266 49.3991 40.1266 49.3284 40.0659 49.2813C40.0659 49.2342 40.1266 49.2107 40.1873 49.1871C40.2481 49.1636 40.3088 49.1401 40.3088 49.093L40.1889 49H40.171C40.1078 49.0099 40.0806 49.0783 40.044 49.1702C40.0195 49.2316 39.9908 49.3036 39.9444 49.3755C39.7547 49.302 39.7131 49.3433 39.6462 49.4097C39.6274 49.4284 39.6066 49.4491 39.58 49.4697C39.1332 49.1728 38.6528 49.3179 38.1566 49.4679C37.7084 49.6033 37.2473 49.7427 36.7862 49.5639C36.7862 49.611 36.7255 49.6581 36.6647 49.7051L36.6647 49.7052C36.604 49.7523 36.5432 49.7993 36.5432 49.8464C36.3306 49.8052 36.211 49.7099 36.0929 49.6157C35.941 49.4947 35.7916 49.3755 35.45 49.3755C35.45 49.2813 35.3893 49.2342 35.3285 49.1871C35.268 49.1403 35.2076 49.0934 35.2071 49H35.2047C35.1016 49.0524 35.0083 49.0446 34.9275 49H32.9141L32.9005 49.0054ZM107.304 50H44.0765C44.1026 49.7853 44.3675 49.6326 44.6243 49.4846L44.6243 49.4846C44.7907 49.3887 44.9536 49.2947 45.0462 49.1871C45.0462 49.4214 45.2967 49.3967 45.4516 49.3814L45.4516 49.3814C45.4835 49.3783 45.5113 49.3755 45.532 49.3755C45.4965 49.4307 45.4609 49.4697 45.4314 49.502C45.3603 49.58 45.3247 49.6191 45.4106 49.7523H46.5038C46.5038 49.6356 46.5866 49.5671 46.6753 49.4937C46.8013 49.3896 46.9391 49.2756 46.8685 49H48.2044V49.093L48.2482 49.0702C48.2893 49.0488 48.3351 49.025 48.3849 49H104.556C105 49.1928 105.351 49.4045 105.703 49.8134H105.825C106.067 49.8134 105.946 49.625 105.946 49.625C105.996 49.625 106.047 49.6574 106.106 49.6952C106.189 49.7488 106.29 49.8134 106.432 49.8134C106.686 49.8134 106.983 49.8973 107.304 50ZM112.588 50H111.772C111.996 49.9559 112.191 49.8685 112.262 49.8134C112.384 49.7663 112.414 49.8134 112.445 49.8605C112.475 49.9076 112.505 49.9547 112.627 49.9076C112.627 49.939 112.613 49.9599 112.6 49.9808L112.6 49.9808C112.596 49.9871 112.592 49.9934 112.588 50ZM124.286 50H123.303C123.586 49.9934 123.853 49.962 124.045 49.8134C123.97 49.8716 124.034 49.8939 124.123 49.9246C124.177 49.9432 124.24 49.9651 124.286 50ZM142.748 50H124.293C124.352 49.9773 124.419 49.9601 124.485 49.9429C124.69 49.8899 124.895 49.837 124.895 49.625C125.017 49.625 125.138 49.625 125.138 49.8134C125.26 49.625 125.867 49.4367 125.867 49.8134C126.126 49.7331 126.429 49.7042 126.729 49.6755C127.133 49.6369 127.532 49.5988 127.811 49.4367C128.158 49.5443 128.505 49.5289 128.852 49.5136C129.112 49.502 129.372 49.4905 129.633 49.5309C130.051 49.1414 130.701 49.244 131.342 49.3455C131.632 49.3912 131.919 49.4367 132.184 49.4367C132.244 49.4367 132.244 49.4602 132.244 49.4955C132.244 49.5309 132.244 49.5779 132.305 49.625C132.581 49.4822 132.788 49.4477 133.083 49.3983L133.084 49.3982C133.178 49.3824 133.281 49.3652 133.398 49.3425C133.614 49.4677 133.877 49.4079 134.124 49.3518C134.435 49.2812 134.721 49.2162 134.856 49.5309C135.099 49.5309 135.22 49.5309 135.22 49.4367C135.342 49.4367 135.342 49.625 135.342 49.8133C135.527 49.8134 135.5 49.7035 135.477 49.6096C135.47 49.5806 135.463 49.5531 135.463 49.5309C135.585 49.5309 135.585 49.625 135.585 49.7192C135.706 49.7192 135.706 49.625 135.706 49.5309C135.844 49.5309 135.943 49.6219 136.047 49.7179C136.126 49.791 136.209 49.8669 136.314 49.9076C136.562 49.9076 136.867 49.8419 137.2 49.7702C137.843 49.6317 138.589 49.471 139.229 49.7192L139.593 49.4367C139.654 49.4367 139.654 49.4602 139.654 49.4955C139.654 49.5309 139.654 49.5779 139.715 49.625C140.005 49.2877 140.295 49.3195 140.663 49.36C140.911 49.3872 141.194 49.4184 141.537 49.3425C141.537 49.6489 141.93 49.7338 142.27 49.8073C142.496 49.8561 142.698 49.8999 142.748 50Z" fill="white" fill-opacity="0.3"/>
</svg>
