<svg width="10" height="13" viewBox="0 0 10 13" fill="none" xmlns="http://www.w3.org/2000/svg">
<path d="M9.66665 12.4167H8.49998V11.2501C8.49998 10.786 8.31561 10.3408 7.98742 10.0126C7.65923 9.68446 7.21411 9.50008 6.74998 9.50008H3.24998C2.78585 9.50008 2.34073 9.68446 2.01254 10.0126C1.68435 10.3408 1.49998 10.786 1.49998 11.2501V12.4167H0.333313V11.2501C0.333313 10.4765 0.640604 9.73467 1.18758 9.18769C1.73457 8.64071 2.47643 8.33341 3.24998 8.33341H6.74998C7.52353 8.33341 8.26539 8.64071 8.81238 9.18769C9.35936 9.73467 9.66665 10.4765 9.66665 11.2501V12.4167ZM4.99998 7.16675C4.54035 7.16675 4.08523 7.07622 3.66059 6.90033C3.23595 6.72443 2.85011 6.46663 2.52511 6.14162C2.2001 5.81662 1.94229 5.43078 1.7664 5.00614C1.59051 4.5815 1.49998 4.12637 1.49998 3.66675C1.49998 3.20712 1.59051 2.752 1.7664 2.32736C1.94229 1.90272 2.2001 1.51688 2.52511 1.19187C2.85011 0.866869 3.23595 0.609061 3.66059 0.43317C4.08523 0.257278 4.54035 0.166748 4.99998 0.166748C5.92824 0.166748 6.81848 0.535497 7.47485 1.19187C8.13123 1.84825 8.49998 2.73849 8.49998 3.66675C8.49998 4.59501 8.13123 5.48524 7.47485 6.14162C6.81848 6.798 5.92824 7.16675 4.99998 7.16675V7.16675ZM4.99998 6.00008C5.61882 6.00008 6.21231 5.75425 6.6499 5.31666C7.08748 4.87908 7.33331 4.28559 7.33331 3.66675C7.33331 3.04791 7.08748 2.45442 6.6499 2.01683C6.21231 1.57925 5.61882 1.33341 4.99998 1.33341C4.38114 1.33341 3.78765 1.57925 3.35006 2.01683C2.91248 2.45442 2.66665 3.04791 2.66665 3.66675C2.66665 4.28559 2.91248 4.87908 3.35006 5.31666C3.78765 5.75425 4.38114 6.00008 4.99998 6.00008V6.00008Z" fill="#F7F5F9"/>
</svg>
